<?xml version="1.0" encoding="UTF-8"?>
<!DOCTYPE svg PUBLIC "-//W3C//DTD SVG 1.1//EN" "http://www.w3.org/Graphics/SVG/1.1/DTD/svg11.dtd">
<svg xmlns="http://www.w3.org/2000/svg" version="1.1" width="515px" height="113px" style="shape-rendering:geometricPrecision; text-rendering:geometricPrecision; image-rendering:optimizeQuality; fill-rule:evenodd; clip-rule:evenodd" xmlns:xlink="http://www.w3.org/1999/xlink">
<g><path style="opacity:0.974" fill="#4ea1e1" d="M 38.5,1.5 C 45.1998,1.16998 51.8665,1.50331 58.5,2.5C 71.4425,30.8298 83.1091,59.6631 93.5,89C 85.8406,89.4997 78.1739,89.6664 70.5,89.5C 69.1046,83.3137 67.1046,77.3137 64.5,71.5C 53.5,70.1667 42.5,70.1667 31.5,71.5C 28.8954,77.3137 26.8954,83.3137 25.5,89.5C 18.1365,89.8306 10.8032,89.4973 3.5,88.5C 13.7986,58.9095 25.4653,29.9095 38.5,1.5 Z M 47.5,23.5 C 51.6689,33.3206 55.6689,43.3206 59.5,53.5C 51.8333,54.8333 44.1667,54.8333 36.5,53.5C 40.5708,43.6182 44.2375,33.6182 47.5,23.5 Z"/></g>
<g><path style="opacity:0.942" fill="#807e7e" d="M 144.5,21.5 C 163.5,21.5 182.5,21.5 201.5,21.5C 201.5,26.1667 201.5,30.8333 201.5,35.5C 194.833,35.5 188.167,35.5 181.5,35.5C 181.5,53.8333 181.5,72.1667 181.5,90.5C 176.167,90.5 170.833,90.5 165.5,90.5C 165.5,72.1667 165.5,53.8333 165.5,35.5C 158.5,35.5 151.5,35.5 144.5,35.5C 144.5,30.8333 144.5,26.1667 144.5,21.5 Z"/></g>
<g><path style="opacity:0.955" fill="#807d7d" d="M 275.5,21.5 C 284.506,21.3336 293.506,21.5002 302.5,22C 319.829,25.8126 325.995,36.3126 321,53.5C 318.448,57.7189 314.948,60.8855 310.5,63C 316.713,71.2519 322.046,80.0852 326.5,89.5C 320.528,90.6636 314.528,90.8303 308.5,90C 303.874,81.9125 298.874,74.0792 293.5,66.5C 291.257,65.5258 288.924,65.1924 286.5,65.5C 286.5,73.8333 286.5,82.1667 286.5,90.5C 281.167,90.5 275.833,90.5 270.5,90.5C 270.5,67.8333 270.5,45.1667 270.5,22.5C 272.415,22.7845 274.081,22.4511 275.5,21.5 Z M 286.5,35.5 C 290.846,35.3343 295.179,35.501 299.5,36C 305.542,38.8368 307.042,43.3368 304,49.5C 298.514,52.1705 292.68,53.1705 286.5,52.5C 286.5,46.8333 286.5,41.1667 286.5,35.5 Z"/></g>
<g><path style="opacity:0.97" fill="#28c21d" d="M 328.5,20.5 C 347.5,20.5 366.5,20.5 385.5,20.5C 385.5,25.1667 385.5,29.8333 385.5,34.5C 378.833,34.5 372.167,34.5 365.5,34.5C 365.5,52.8333 365.5,71.1667 365.5,89.5C 359.833,89.5 354.167,89.5 348.5,89.5C 348.5,71.1667 348.5,52.8333 348.5,34.5C 341.833,34.5 335.167,34.5 328.5,34.5C 328.5,29.8333 328.5,25.1667 328.5,20.5 Z"/></g>
<g><path style="opacity:0.946" fill="#807e7e" d="M 102.5,22.5 C 107.833,22.5 113.167,22.5 118.5,22.5C 118.5,40.5 118.5,58.5 118.5,76.5C 128.833,76.5 139.167,76.5 149.5,76.5C 149.5,81.1667 149.5,85.8333 149.5,90.5C 133.833,90.5 118.167,90.5 102.5,90.5C 102.5,67.8333 102.5,45.1667 102.5,22.5 Z"/></g>
<g><path style="opacity:0.965" fill="#807d7d" d="M 210.5,22.5 C 226.167,22.5 241.833,22.5 257.5,22.5C 257.5,26.8333 257.5,31.1667 257.5,35.5C 247.167,35.5 236.833,35.5 226.5,35.5C 226.5,39.8333 226.5,44.1667 226.5,48.5C 235.833,48.5 245.167,48.5 254.5,48.5C 254.5,52.8333 254.5,57.1667 254.5,61.5C 245.167,61.5 235.833,61.5 226.5,61.5C 226.5,66.8333 226.5,72.1667 226.5,77.5C 237.5,77.5 248.5,77.5 259.5,77.5C 259.5,81.8333 259.5,86.1667 259.5,90.5C 243.167,90.5 226.833,90.5 210.5,90.5C 210.5,67.8333 210.5,45.1667 210.5,22.5 Z"/></g>
<g><path style="opacity:0.97" fill="#868585" d="M 395.5,22.5 C 411.167,22.5 426.833,22.5 442.5,22.5C 442.5,26.8333 442.5,31.1667 442.5,35.5C 432.167,35.5 421.833,35.5 411.5,35.5C 411.5,39.8333 411.5,44.1667 411.5,48.5C 420.5,48.5 429.5,48.5 438.5,48.5C 438.5,52.8333 438.5,57.1667 438.5,61.5C 429.5,61.5 420.5,61.5 411.5,61.5C 411.5,66.8333 411.5,72.1667 411.5,77.5C 422.5,77.5 433.5,77.5 444.5,77.5C 444.5,81.8333 444.5,86.1667 444.5,90.5C 428.167,90.5 411.833,90.5 395.5,90.5C 395.5,67.8333 395.5,45.1667 395.5,22.5 Z"/></g>
<g><path style="opacity:0.954" fill="#868585" d="M 454.5,21.5 C 459.833,21.5 465.167,21.5 470.5,21.5C 470.334,29.84 470.5,38.1733 471,46.5C 478.5,38.3333 486,30.1667 493.5,22C 499.859,21.1694 506.193,21.3361 512.5,22.5C 503.906,33.4307 494.573,43.764 484.5,53.5C 495.684,64.3433 505.351,76.3433 513.5,89.5C 507.193,90.6639 500.859,90.8306 494.5,90C 487.886,80.2853 480.219,71.4519 471.5,63.5C 470.502,72.4754 470.168,81.4754 470.5,90.5C 465.167,90.5 459.833,90.5 454.5,90.5C 454.5,67.5 454.5,44.5 454.5,21.5 Z"/></g>
<g><path style="opacity:0.834" fill="#7d7676" d="M 1.5,105.5 C 111.833,105.5 222.167,105.5 332.5,105.5C 332.5,107.5 332.5,109.5 332.5,111.5C 222.167,111.5 111.833,111.5 1.5,111.5C 1.5,109.5 1.5,107.5 1.5,105.5 Z"/></g>
</svg>
