<svg xmlns:dc="http://purl.org/dc/elements/1.1/" xmlns:cc="http://creativecommons.org/ns#" xmlns:rdf="http://www.w3.org/1999/02/22-rdf-syntax-ns#" xmlns:svg="http://www.w3.org/2000/svg" xmlns="http://www.w3.org/2000/svg" xmlns:sodipodi="http://sodipodi.sourceforge.net/DTD/sodipodi-0.dtd" xmlns:inkscape="http://www.inkscape.org/namespaces/inkscape" version="1.1" style="" xml:space="preserve" sodipodi:docname="logo_chatons_v3.svg" inkscape:version="0.92.1 r15371" inkscape:export-filename="/home/lise/Bureau/logo_chatons_v3.png" inkscape:export-xdpi="240" inkscape:export-ydpi="240" width="1001" height="700"><rect id="backgroundrect" width="100%" height="100%" x="0" y="0" fill="none" stroke="none" style="" class=""/><metadata id="metadata110"><rdf:RDF><cc:Work rdf:about=""><dc:format>image/svg+xml</dc:format><dc:type rdf:resource="http://purl.org/dc/dcmitype/StillImage"/><dc:title/></cc:Work></rdf:RDF></metadata><defs id="defs108"/><sodipodi:namedview pagecolor="#ffffff" bordercolor="#666666" borderopacity="1" objecttolerance="10" gridtolerance="10" guidetolerance="10" inkscape:pageopacity="0" inkscape:pageshadow="2" inkscape:window-width="1360" inkscape:window-height="713" id="namedview106" showgrid="false" inkscape:zoom="0.6675088" inkscape:cx="738.84335" inkscape:cy="536.64652" inkscape:window-x="0" inkscape:window-y="0" inkscape:window-maximized="1" inkscape:current-layer="Calque_4"/><style type="text/css" id="style2">
	.st0{fill:#FECA5D;}
	.st1{fill:#CC9237;}
	.st2{fill:#FFFFFF;}
	.st3{fill:none;stroke:#CC9237;stroke-width:5;stroke-miterlimit:10;}
	.st4{fill:#E5AE37;}
	.st5{fill:none;stroke:#FECA5D;stroke-width:5;stroke-miterlimit:10;}
	.st6{fill:none;stroke:#FFFFFF;stroke-width:4;stroke-miterlimit:10;}
	.st7{fill:none;stroke:#FFFFFF;stroke-width:2;stroke-miterlimit:10;}
</style><g class="currentLayer" style=""><title>Layer 1</title><g id="Calque_4" class=""><polygon class="st0" points="0,119.60000610351562 156.39999389648438,194.29998779296875 241.89999389648438,163.5 317.5,0 491.8999938964844,483.9000244140625 131.3000030517578,483.9000244140625 " id="polygon4" style="fill:#f0980c;fill-opacity:1"/><polygon class="st1" points="82.30000305175781,234.5 52.599998474121094,236.79998779296875 15.399999618530273,143.5 " id="polygon6" style="fill:#a46708;fill-opacity:1"/><polyline class="st1" points="350.6000061035156,123.80000305175781 316.1000061035156,29.5 327.1000061035156,142.29998779296875 " id="polyline8" style="fill:#a46708;fill-opacity:1"/><circle transform="matrix(0.9877, -0.1564, 0.1564, 0.9877, -59.4858, 58.6365)" class="st2" cx="348.41217613220215" cy="286.1722183227539" id="ellipse10" r="55.69999694824219" style="fill:#ffffff"/><ellipse transform="matrix(0.9877, -0.1564, 0.1564, 0.9877, -59.7545, 58.7579)" class="st1" cx="349.0121822357178" cy="287.9722366333008" rx="29.700000762939453" ry="37.099998474121094" id="ellipse12" style="fill:#a46708;fill-opacity:1"/><circle transform="matrix(0.9877, -0.1564, 0.1564, 0.9877, -70.4956, 34.5851)" class="st2" cx="190.01218223571777" cy="344.0722427368164" id="ellipse14" r="55.70000457763672" style="fill:#ffffff"/><polygon class="st1" points="290.6000061035156,355.29998779296875 300.6000061035156,359.8999938964844 286.3999938964844,390.1000061035156 269,396.29998779296875 239.8000030517578,382.6000061035156 244.39999389648438,371.8999938964844 " id="polygon16" style="fill:#a46708;fill-opacity:1"/><path class="st2" d="m288.20001220703125,396.79998779296875 c-7.800000190734863,6.699999809265137 32.29999923706055,20.899999618530273 71.19999694824219,5.599999904632568 c15.399999618530273,-6 47.599998474121094,-29.299999237060547 46,-34.099998474121094 c0,0 -25.5,24.600000381469727 -56.5,22.299999237060547 c-29.799999237060547,-2.299999952316284 -47.70000076293945,-4.900000095367432 -60.70000076293945,6.199999809265137 z" id="path18" inkscape:connector-curvature="0" style="fill:#f9cc01;fill-opacity:1"/><ellipse transform="matrix(0.8604, -0.5096, 0.5096, 0.8604, -212.145, 159.545)" class="st1" cx="234.99237442016602" cy="356.44002532958984" rx="29.700000762939453" ry="37.099998474121094" id="ellipse20" style="fill:#a46708;fill-opacity:1"/><path class="st2" d="m275.79998779296875,401.29998779296875 c10.300000190734863,0.20000000298023224 -11.5,36.70000076293945 -51.29999923706055,49.70000076293945 c-15.699999809265137,5.099999904632568 -55.29999923706055,7.800000190734863 -57.20000076293945,3 c0,0 35.29999923706055,2.700000047683716 57.70000076293945,-18.899999618530273 c21.600000381469727,-20.700000762939453 33.79999923706055,-34.099998474121094 50.79999923706055,-33.79999923706055 z" id="path22" inkscape:connector-curvature="0" style="fill:#f9cc01;fill-opacity:1"/><path class="st3" d="m284.1000061035156,407.0999755859375 c4,11 -11.399999618530273,26.600000381469727 -34.400001525878906,34.900001525878906 " id="path24" inkscape:connector-curvature="0" style="fill:none;stroke:#a46708;stroke-width:5;stroke-miterlimit:10;stroke-opacity:1"/><path class="st3" d="m284.8999938964844,406.79998779296875 c4,11 25.799999237060547,13.199999809265137 48.70000076293945,4.900000095367432 " id="path26" inkscape:connector-curvature="0" style="fill:none;stroke:#a46708;stroke-width:5;stroke-miterlimit:10;stroke-opacity:1"/></g><g class="" id="svg_1"><polygon class="st0" points="0,119.60000610351562 156.39999389648438,194.29998779296875 241.89999389648438,163.5 317.5,0 491.8999938964844,483.9000244140625 131.3000030517578,483.9000244140625 " id="svg_2" style="fill:#f0980c;fill-opacity:1"/><polygon class="st1" points="82.30000305175781,234.5 52.599998474121094,236.79998779296875 15.399999618530273,143.5 " id="svg_3" style="fill:#a46708;fill-opacity:1"/><polyline class="st1" points="350.6000061035156,123.80000305175781 316.1000061035156,29.5 327.1000061035156,142.29998779296875 " id="svg_4" style="fill:#a46708;fill-opacity:1"/><circle transform="matrix(0.9877, -0.1564, 0.1564, 0.9877, -59.4858, 58.6365)" class="st2" cx="348.41217613220215" cy="286.1722183227539" id="svg_5" r="55.69999694824219" style="fill:#ffffff"/><ellipse transform="matrix(0.9877, -0.1564, 0.1564, 0.9877, -59.7545, 58.7579)" class="st1" cx="349.0121822357178" cy="287.9722366333008" rx="29.700000762939453" ry="37.099998474121094" id="svg_6" style="fill:#a46708;fill-opacity:1"/><circle transform="matrix(0.9877, -0.1564, 0.1564, 0.9877, -70.4956, 34.5851)" class="st2" cx="190.01218223571777" cy="344.0722427368164" id="svg_7" r="55.70000457763672" style="fill:#ffffff"/><polygon class="st1" points="290.6000061035156,355.29998779296875 300.6000061035156,359.8999938964844 286.3999938964844,390.1000061035156 269,396.29998779296875 239.8000030517578,382.6000061035156 244.39999389648438,371.8999938964844 " id="svg_8" style="fill:#a46708;fill-opacity:1"/><path class="st2" d="m288.20001220703125,396.79998779296875 c-7.800000190734863,6.699999809265137 32.29999923706055,20.899999618530273 71.19999694824219,5.599999904632568 c15.399999618530273,-6 47.599998474121094,-29.299999237060547 46,-34.099998474121094 c0,0 -25.5,24.600000381469727 -56.5,22.299999237060547 c-29.799999237060547,-2.299999952316284 -47.70000076293945,-4.900000095367432 -60.70000076293945,6.199999809265137 z" id="svg_9" inkscape:connector-curvature="0" style="fill:#f9cc01;fill-opacity:1"/><ellipse transform="matrix(0.8604, -0.5096, 0.5096, 0.8604, -212.145, 159.545)" class="st1" cx="234.99237442016602" cy="356.44002532958984" rx="29.700000762939453" ry="37.099998474121094" id="svg_10" style="fill:#a46708;fill-opacity:1"/><path class="st2" d="m275.79998779296875,401.29998779296875 c10.300000190734863,0.20000000298023224 -11.5,36.70000076293945 -51.29999923706055,49.70000076293945 c-15.699999809265137,5.099999904632568 -55.29999923706055,7.800000190734863 -57.20000076293945,3 c0,0 35.29999923706055,2.700000047683716 57.70000076293945,-18.899999618530273 c21.600000381469727,-20.700000762939453 33.79999923706055,-34.099998474121094 50.79999923706055,-33.79999923706055 z" id="svg_11" inkscape:connector-curvature="0" style="fill:#f9cc01;fill-opacity:1"/><path class="st3" d="m284.1000061035156,407.0999755859375 c4,11 -11.399999618530273,26.600000381469727 -34.400001525878906,34.900001525878906 " id="svg_12" inkscape:connector-curvature="0" style="fill:none;stroke:#a46708;stroke-width:5;stroke-miterlimit:10;stroke-opacity:1"/><path class="st3" d="m284.8999938964844,406.79998779296875 c4,11 25.799999237060547,13.199999809265137 48.70000076293945,4.900000095367432 " id="svg_13" inkscape:connector-curvature="0" style="fill:none;stroke:#a46708;stroke-width:5;stroke-miterlimit:10;stroke-opacity:1"/></g><g id="Calque_3" class=""><polygon class="st4" points="641.7999877929688,23.100006103515625 716,172.20001220703125 801.0999755859375,204 961.0999755859375,137.70001220703125 834.2999877929688,484.5999755859375 458.20001220703125,482 " id="polygon29" style="fill:#f9cc01;fill-opacity:1"/><polygon class="st0" points="633.5,161.39999389648438 609.2999877929688,143.89999389648438 641.4000244140625,48.69999694824219 " id="polygon31" style="fill:#f0980c;fill-opacity:1"/><polyline class="st0" points="909.7000122070312,250.60000610351562 944.4000244140625,156.39999389648438 879.7999877929688,249.5 " id="polyline33" style="fill:#f0980c;fill-opacity:1"/><polygon class="st0" points="728.4000244140625,349.79998779296875 732.9000244140625,359.79998779296875 702.5999755859375,373.6000061035156 685.2999877929688,367.1000061035156 671.9000244140625,337.79998779296875 682.2999877929688,332.6000061035156 " id="polygon35" style="fill:#f0980c;fill-opacity:1"/><path class="st5" d="m689.7000122070312,384 c-4.099999904632568,10.899999618530273 -25.899999618530273,12.899999618530273 -48.79999923706055,4.300000190734863 " id="path37" inkscape:connector-curvature="0" style="fill:none;stroke:#f0980c;stroke-width:5;stroke-miterlimit:10;stroke-opacity:1"/><path class="st5" d="m689.7000122070312,384 c-4.099999904632568,10.899999618530273 11.100000381469727,26.700000762939453 34,35.29999923706055 " id="path39" inkscape:connector-curvature="0" style="fill:none;stroke:#f0980c;stroke-width:5;stroke-miterlimit:10;stroke-opacity:1"/><ellipse transform="matrix(0.1682, -0.9858, 0.9858, 0.1682, 236.711, 1166.68)" class="st2" cx="926.1073532104492" cy="409.52672576904297" rx="42.70000076293945" ry="53.900001525878906" id="ellipse41" style="fill:#ffffff"/><circle transform="matrix(0.1682, -0.9858, 0.9858, 0.1682, 227.214, 1156.59)" class="st0" cx="915.4074020385742" cy="410.1267318725586" id="ellipse43" r="33.69999694824219" style="fill:#f0980c;fill-opacity:1"/><ellipse transform="matrix(0.5198, -0.8543, 0.8543, 0.5198, -14.1075, 747.741)" class="st2" cx="754.0238571166992" cy="312.2325668334961" rx="42.70000076293945" ry="53.900001525878906" id="ellipse45" style="fill:#ffffff"/><path class="st0" d="m609.2999877929688,251.39999389648438 c9.699999809265137,-15.899999618530273 30.399999618530273,-21 46.29999923706055,-11.300000190734863 c19.200000762939453,11.699999809265137 17.600000381469727,35.900001525878906 11.300000190734863,46.29999923706055 c-9.699999809265137,15.899999618530273 -30.399999618530273,21 -46.29999923706055,11.300000190734863 c-16,-9.699999809265137 -21,-30.399999618530273 -11.300000190734863,-46.29999923706055 z" id="path47" inkscape:connector-curvature="0" style="fill:#f0980c;fill-opacity:1"/><polyline class="st0" points="805.7999877929688,268.5 804.7999877929688,203.5 869.9000244140625,202.5 " id="polyline49" style="fill:#f0980c;fill-opacity:1"/><polyline class="st0" points="740.5999755859375,204.39999389648438 805.7000122070312,203.5 804.7000122070312,138.39999389648438 " id="polyline51" style="fill:#f0980c;fill-opacity:1"/><circle transform="matrix(0.9999, -0.0150552, 0.0150552, 0.9999, -4.7848, 12.3569)" class="st1" cx="806.6158018112183" cy="203.31201934814453" id="ellipse53" r="9.79998779296875" style="fill:#a46708;fill-opacity:1"/></g><g class="" id="svg_29"><polygon class="st4" points="641.7999877929688,23.100006103515625 716,172.20001220703125 801.0999755859375,204 961.0999755859375,137.70001220703125 834.2999877929688,484.5999755859375 458.20001220703125,482 " id="svg_30" style="fill:#f9cc01;fill-opacity:1"/><polygon class="st0" points="633.5,161.39999389648438 609.2999877929688,143.89999389648438 641.4000244140625,48.69999694824219 " id="svg_31" style="fill:#f0980c;fill-opacity:1"/><polyline class="st0" points="909.7000122070312,250.60000610351562 944.4000244140625,156.39999389648438 879.7999877929688,249.5 " id="svg_32" style="fill:#f0980c;fill-opacity:1"/><polygon class="st0" points="728.4000244140625,349.79998779296875 732.9000244140625,359.79998779296875 702.5999755859375,373.6000061035156 685.2999877929688,367.1000061035156 671.9000244140625,337.79998779296875 682.2999877929688,332.6000061035156 " id="svg_33" style="fill:#f0980c;fill-opacity:1"/><path class="st5" d="m689.7000122070312,384 c-4.099999904632568,10.899999618530273 -25.899999618530273,12.899999618530273 -48.79999923706055,4.300000190734863 " id="svg_34" inkscape:connector-curvature="0" style="fill:none;stroke:#f0980c;stroke-width:5;stroke-miterlimit:10;stroke-opacity:1"/><path class="st5" d="m689.7000122070312,384 c-4.099999904632568,10.899999618530273 11.100000381469727,26.700000762939453 34,35.29999923706055 " id="svg_35" inkscape:connector-curvature="0" style="fill:none;stroke:#f0980c;stroke-width:5;stroke-miterlimit:10;stroke-opacity:1"/><ellipse transform="matrix(0.1682, -0.9858, 0.9858, 0.1682, 236.711, 1166.68)" class="st2" cx="926.1073532104492" cy="409.52672576904297" rx="42.70000076293945" ry="53.900001525878906" id="svg_36" style="fill:#ffffff"/><circle transform="matrix(0.1682, -0.9858, 0.9858, 0.1682, 227.214, 1156.59)" class="st0" cx="915.4074020385742" cy="410.1267318725586" id="svg_37" r="33.69999694824219" style="fill:#f0980c;fill-opacity:1"/><ellipse transform="matrix(0.5198, -0.8543, 0.8543, 0.5198, -14.1075, 747.741)" class="st2" cx="754.0238571166992" cy="312.2325668334961" rx="42.70000076293945" ry="53.900001525878906" id="svg_38" style="fill:#ffffff"/><path class="st0" d="m609.2999877929688,251.39999389648438 c9.699999809265137,-15.899999618530273 30.399999618530273,-21 46.29999923706055,-11.300000190734863 c19.200000762939453,11.699999809265137 17.600000381469727,35.900001525878906 11.300000190734863,46.29999923706055 c-9.699999809265137,15.899999618530273 -30.399999618530273,21 -46.29999923706055,11.300000190734863 c-16,-9.699999809265137 -21,-30.399999618530273 -11.300000190734863,-46.29999923706055 z" id="svg_39" inkscape:connector-curvature="0" style="fill:#f0980c;fill-opacity:1"/><polyline class="st0" points="805.7999877929688,268.5 804.7999877929688,203.5 869.9000244140625,202.5 " id="svg_40" style="fill:#f0980c;fill-opacity:1"/><polyline class="st0" points="740.5999755859375,204.39999389648438 805.7000122070312,203.5 804.7000122070312,138.39999389648438 " id="svg_41" style="fill:#f0980c;fill-opacity:1"/><circle transform="matrix(0.9999, -0.0150552, 0.0150552, 0.9999, -4.7848, 12.3569)" class="st1" cx="806.6158018112183" cy="203.31201934814453" id="svg_42" r="9.79998779296875" style="fill:#a46708;fill-opacity:1"/></g><g id="Calque_2" class=""><polygon class="st1" points="326.79998779296875,39.5 450,163.10000610351562 540.9000244140625,163 666.7000122070312,47.30000305175781 666.9000244140625,488.9000244140625 322.1000061035156,487.20001220703125 " id="polygon56" style="fill:#a46708;fill-opacity:1"/><polygon class="st0" points="368.5,171.89999389648438 339.79998779296875,164 336.29998779296875,63.69999694824219 " id="polygon58" style="fill:#f0980c;fill-opacity:1"/><polyline class="st0" points="658.5999755859375,167.89999389648438 658.0999755859375,67.5 630.2000122070312,177.39999389648438 " id="polyline60" style="fill:#f0980c;fill-opacity:1"/><polygon class="st0" points="517.0999755859375,330.6000061035156 524.7999877929688,338.29998779296875 501.29998779296875,361.8999938964844 482.79998779296875,361.8999938964844 460,339.1000061035156 467.8999938964844,330.6000061035156 " id="polygon62" style="fill:#f0980c;fill-opacity:1"/><path class="st5" d="m492.8999938964844,376.20001220703125 c0,11.699999809265137 -19.700000762939453,21.200000762939453 -44.099998474121094,21.200000762939453 " id="path64" inkscape:connector-curvature="0" style="fill:none;stroke:#f0980c;stroke-width:5;stroke-miterlimit:10;stroke-opacity:1"/><path class="st5" d="m492.8999938964844,376.20001220703125 c0,11.699999809265137 19.799999237060547,21.100000381469727 44.20000076293945,21.100000381469727 " id="path66" inkscape:connector-curvature="0" style="fill:none;stroke:#f0980c;stroke-width:5;stroke-miterlimit:10;stroke-opacity:1"/><path class="st6" d="m348.3999938964844,285.5 c31.899999618530273,-29.700000762939453 81.80000305175781,-28 111.5999984741211,3.9000000953674316 " id="path68" inkscape:connector-curvature="0" style="fill:none;stroke:#ffffff;stroke-width:4;stroke-miterlimit:10"/><path class="st6" d="M629.4000244140625,285.20001220703125 C597.4000244140625,255.5 547.5,257.3999938964844 517.7999877929688,289.3999938964844 " id="path70" inkscape:connector-curvature="0" style="fill:none;stroke:#ffffff;stroke-width:4;stroke-miterlimit:10"/><path class="st7" d="m453,369.6000061035156 c0,-10.399999618530273 -38.900001525878906,-18.799999237060547 -86.9000015258789,-18.700000762939453 " id="path72" inkscape:connector-curvature="0" style="fill:none;stroke:#ffffff;stroke-width:2;stroke-miterlimit:10"/><path class="st7" d="m448.70001220703125,372.8999938964844 c0,-3.9000000953674316 -44.79999923706055,-7 -100.30000305175781,-6.900000095367432 " id="path74" inkscape:connector-curvature="0" style="fill:none;stroke:#ffffff;stroke-width:2;stroke-miterlimit:10"/><path class="st7" d="m453,381.79998779296875 c0,2.700000047683716 -37,5 -82.69999694824219,5 " id="path76" inkscape:connector-curvature="0" style="fill:none;stroke:#ffffff;stroke-width:2;stroke-miterlimit:10"/><path class="st7" d="m525.4000244140625,370.1000061035156 c0,-10.399999618530273 38.900001525878906,-18.799999237060547 86.9000015258789,-18.899999618530273 " id="path78" inkscape:connector-curvature="0" style="fill:none;stroke:#ffffff;stroke-width:2;stroke-miterlimit:10"/><path class="st7" d="m529.5999755859375,373.3999938964844 c0,-3.9000000953674316 44.79999923706055,-7.099999904632568 100.19999694824219,-7.199999809265137 " id="path80" inkscape:connector-curvature="0" style="fill:none;stroke:#ffffff;stroke-width:2;stroke-miterlimit:10"/><path class="st7" d="m525.4000244140625,382.3999938964844 c0,2.700000047683716 37,4.900000095367432 82.69999694824219,4.800000190734863 " id="path82" inkscape:connector-curvature="0" style="fill:none;stroke:#ffffff;stroke-width:2;stroke-miterlimit:10"/></g><g class="" id="svg_14"><polygon class="st1" points="326.79998779296875,39.5 450,163.10000610351562 540.9000244140625,163 666.7000122070312,47.30000305175781 666.9000244140625,488.9000244140625 322.1000061035156,487.20001220703125 " id="svg_15" style="fill:#a46708;fill-opacity:1"/><polygon class="st0" points="368.5,171.89999389648438 339.79998779296875,164 336.29998779296875,63.69999694824219 " id="svg_16" style="fill:#f0980c;fill-opacity:1"/><polyline class="st0" points="658.5999755859375,167.89999389648438 658.0999755859375,67.5 630.2000122070312,177.39999389648438 " id="svg_17" style="fill:#f0980c;fill-opacity:1"/><polygon class="st0" points="517.0999755859375,330.6000061035156 524.7999877929688,338.29998779296875 501.29998779296875,361.8999938964844 482.79998779296875,361.8999938964844 460,339.1000061035156 467.8999938964844,330.6000061035156 " id="svg_18" style="fill:#f0980c;fill-opacity:1"/><path class="st5" d="m492.8999938964844,376.20001220703125 c0,11.699999809265137 -19.700000762939453,21.200000762939453 -44.099998474121094,21.200000762939453 " id="svg_19" inkscape:connector-curvature="0" style="fill:none;stroke:#f0980c;stroke-width:5;stroke-miterlimit:10;stroke-opacity:1"/><path class="st5" d="m492.8999938964844,376.20001220703125 c0,11.699999809265137 19.799999237060547,21.100000381469727 44.20000076293945,21.100000381469727 " id="svg_20" inkscape:connector-curvature="0" style="fill:none;stroke:#f0980c;stroke-width:5;stroke-miterlimit:10;stroke-opacity:1"/><path class="st6" d="m348.3999938964844,285.5 c31.899999618530273,-29.700000762939453 81.80000305175781,-28 111.5999984741211,3.9000000953674316 " id="svg_21" inkscape:connector-curvature="0" style="fill:none;stroke:#ffffff;stroke-width:4;stroke-miterlimit:10"/><path class="st6" d="M629.4000244140625,285.20001220703125 C597.4000244140625,255.5 547.5,257.3999938964844 517.7999877929688,289.3999938964844 " id="svg_22" inkscape:connector-curvature="0" style="fill:none;stroke:#ffffff;stroke-width:4;stroke-miterlimit:10"/><path class="st7" d="m453,369.6000061035156 c0,-10.399999618530273 -38.900001525878906,-18.799999237060547 -86.9000015258789,-18.700000762939453 " id="svg_23" inkscape:connector-curvature="0" style="fill:none;stroke:#ffffff;stroke-width:2;stroke-miterlimit:10"/><path class="st7" d="m448.70001220703125,372.8999938964844 c0,-3.9000000953674316 -44.79999923706055,-7 -100.30000305175781,-6.900000095367432 " id="svg_24" inkscape:connector-curvature="0" style="fill:none;stroke:#ffffff;stroke-width:2;stroke-miterlimit:10"/><path class="st7" d="m453,381.79998779296875 c0,2.700000047683716 -37,5 -82.69999694824219,5 " id="svg_25" inkscape:connector-curvature="0" style="fill:none;stroke:#ffffff;stroke-width:2;stroke-miterlimit:10"/><path class="st7" d="m525.4000244140625,370.1000061035156 c0,-10.399999618530273 38.900001525878906,-18.799999237060547 86.9000015258789,-18.899999618530273 " id="svg_26" inkscape:connector-curvature="0" style="fill:none;stroke:#ffffff;stroke-width:2;stroke-miterlimit:10"/><path class="st7" d="m529.5999755859375,373.3999938964844 c0,-3.9000000953674316 44.79999923706055,-7.099999904632568 100.19999694824219,-7.199999809265137 " id="svg_27" inkscape:connector-curvature="0" style="fill:none;stroke:#ffffff;stroke-width:2;stroke-miterlimit:10"/><path class="st7" d="m525.4000244140625,382.3999938964844 c0,2.700000047683716 37,4.900000095367432 82.69999694824219,4.800000190734863 " id="svg_28" inkscape:connector-curvature="0" style="fill:none;stroke:#ffffff;stroke-width:2;stroke-miterlimit:10"/></g><g id="Calque_1" class=""><rect x="130.1999969482422" y="482" class="st1" width="705.5" height="13.800000190734863" id="rect85" style="fill:#a46708;fill-opacity:1"/><g id="g101"><path class="st1" d="m220.89999389648438,639 c0.8999999761581421,1.7000000476837158 1.7000000476837158,3.4000000953674316 2.4000000953674316,4.900000095367432 c0.699999988079071,1.600000023841858 1.2000000476837158,3.200000047683716 1.5,4.900000095367432 c-3.799999952316284,1.899999976158142 -8.399999618530273,3.4000000953674316 -13.699999809265137,4.5 c-5.300000190734863,1.100000023841858 -10.899999618530273,1.600000023841858 -16.799999237060547,1.600000023841858 c-8.300000190734863,0 -15.800000190734863,-1.399999976158142 -22.600000381469727,-4.099999904632568 c-6.800000190734863,-2.700000047683716 -12.699999809265137,-6.699999809265137 -17.600000381469727,-11.899999618530273 c-4.900000095367432,-5.199999809265137 -8.600000381469727,-11.699999809265137 -11.399999618530273,-19.399999618530273 c-2.700000047683716,-7.699999809265137 -4.099999904632568,-16.600000381469727 -4.099999904632568,-26.600000381469727 c0,-10.199999809265137 1.2999999523162842,-19.399999618530273 4,-27.399999618530273 c2.700000047683716,-8 6.400000095367432,-14.800000190734863 11.199999809265137,-20.299999237060547 c4.800000190734863,-5.5 10.600000381469727,-9.699999809265137 17.5,-12.600000381469727 c6.800000190734863,-2.9000000953674316 14.5,-4.300000190734863 23,-4.300000190734863 c7.099999904632568,0 13.100000381469727,0.5 17.799999237060547,1.5 c4.699999809265137,1 8.199999809265137,1.899999976158142 10.300000190734863,2.5999999046325684 c-0.20000000298023224,2 -0.5,3.799999952316284 -0.8999999761581421,5.099999904632568 c-0.4000000059604645,1.399999976158142 -1,3 -1.7999999523162842,4.900000095367432 c-1.5,-0.5 -3,-0.8999999761581421 -4.5,-1.399999976158142 c-1.5,-0.5 -3.299999952316284,-0.8999999761581421 -5.199999809265137,-1.2000000476837158 c-1.899999976158142,-0.30000001192092896 -4.199999809265137,-0.6000000238418579 -6.699999809265137,-0.8999999761581421 c-2.5,-0.20000000298023224 -5.5,-0.30000001192092896 -8.899999618530273,-0.30000001192092896 c-6.699999809265137,0 -12.699999809265137,1.2000000476837158 -18,3.700000047683716 c-5.300000190734863,2.4000000953674316 -9.800000190734863,6 -13.600000381469727,10.699999809265137 c-3.700000047683716,4.699999809265137 -6.599999904632568,10.300000190734863 -8.600000381469727,17.100000381469727 c-2,6.699999809265137 -3.0999999046325684,14.300000190734863 -3.0999999046325684,22.899999618530273 c0,8.800000190734863 1.100000023841858,16.399999618530273 3.4000000953674316,22.899999618530273 c2.299999952316284,6.5 5.400000095367432,11.899999618530273 9.399999618530273,16.100000381469727 c4,4.300000190734863 8.699999809265137,7.400000095367432 14.100000381469727,9.5 c5.400000095367432,2 11.199999809265137,3.0999999046325684 17.399999618530273,3.0999999046325684 c5.300000190734863,0 10.100000381469727,-0.5 14.5,-1.5 c4.5,-1.2000000476837158 8.100000381469727,-2.5 11,-4.099999904632568 z" id="path87" inkscape:connector-curvature="0" style="fill:#a46708;fill-opacity:1"/><path class="st1" d="m249.79998779296875,530.4000244140625 c0.800000011920929,-0.10000000149011612 1.7999999523162842,-0.20000000298023224 2.9000000953674316,-0.30000001192092896 c1.100000023841858,-0.10000000149011612 2.0999999046325684,-0.10000000149011612 3.0999999046325684,-0.10000000149011612 c1,0 2,0 3.0999999046325684,0.10000000149011612 c1,0.10000000149011612 1.899999976158142,0.10000000149011612 2.700000047683716,0.30000001192092896 v52.20000076293945 h60 v-52.20000076293945 c0.800000011920929,-0.10000000149011612 1.7000000476837158,-0.20000000298023224 2.700000047683716,-0.30000001192092896 c1,-0.10000000149011612 2,-0.10000000149011612 3.0999999046325684,-0.10000000149011612 c0.8999999761581421,0 1.899999976158142,0 3.0999999046325684,0.10000000149011612 c1.100000023841858,0.10000000149011612 2.0999999046325684,0.10000000149011612 2.9000000953674316,0.30000001192092896 v122.5999984741211 c-0.699999988079071,0.10000000149011612 -1.600000023841858,0.20000000298023224 -2.5999999046325684,0.30000001192092896 c-1.100000023841858,0.10000000149011612 -2.200000047683716,0.10000000149011612 -3.299999952316284,0.10000000149011612 c-1,0 -2,0 -3.0999999046325684,-0.10000000149011612 c-1,-0.10000000149011612 -1.899999976158142,-0.10000000149011612 -2.700000047683716,-0.30000001192092896 v-59.70000076293945 h-60 v59.70000076293945 c-0.800000011920929,0.10000000149011612 -1.7000000476837158,0.20000000298023224 -2.700000047683716,0.30000001192092896 c-1,0.10000000149011612 -2,0.10000000149011612 -3.0999999046325684,0.10000000149011612 c-1.100000023841858,0 -2.200000047683716,0 -3.299999952316284,-0.10000000149011612 c-1.100000023841858,-0.10000000149011612 -2,-0.10000000149011612 -2.5999999046325684,-0.30000001192092896 V530.4000244140625 z" id="path89" inkscape:connector-curvature="0" style="fill:#a46708;fill-opacity:1"/><path class="st1" d="m394.3999938964844,530.4000244140625 c0.800000011920929,-0.10000000149011612 1.899999976158142,-0.20000000298023224 3.200000047683716,-0.30000001192092896 c1.399999976158142,-0.10000000149011612 2.5999999046325684,-0.10000000149011612 3.700000047683716,-0.10000000149011612 c1.2000000476837158,0 2.5,0 3.799999952316284,0.10000000149011612 c1.2999999523162842,0.10000000149011612 2.299999952316284,0.10000000149011612 3.0999999046325684,0.30000001192092896 l40.70000076293945,122.5999984741211 c-0.699999988079071,0.10000000149011612 -1.600000023841858,0.20000000298023224 -2.9000000953674316,0.30000001192092896 c-1.2000000476837158,0.10000000149011612 -2.4000000953674316,0.10000000149011612 -3.5999999046325684,0.10000000149011612 c-1,0 -2.0999999046325684,0 -3.200000047683716,-0.10000000149011612 c-1.100000023841858,-0.10000000149011612 -2.0999999046325684,-0.10000000149011612 -2.9000000953674316,-0.30000001192092896 l-10.199999809265137,-31.200000762939453 h-50.20000076293945 l-9.699999809265137,31.200000762939453 c-0.8999999761581421,0.10000000149011612 -2,0.20000000298023224 -3.0999999046325684,0.30000001192092896 c-1.2000000476837158,0.10000000149011612 -2.299999952316284,0.10000000149011612 -3.299999952316284,0.10000000149011612 c-1.100000023841858,0 -2.299999952316284,0 -3.5,-0.10000000149011612 c-1.2000000476837158,-0.10000000149011612 -2.0999999046325684,-0.10000000149011612 -2.799999952316284,-0.30000001192092896 zm28.5,80.5 l-21.899999618530273,-68.19999694824219 l-21.5,68.19999694824219 z" id="path91" inkscape:connector-curvature="0" style="fill:#a46708;fill-opacity:1"/><path class="st1" d="m478.3999938964844,541 h-32.70000076293945 c-0.10000000149011612,-0.699999988079071 -0.20000000298023224,-1.5 -0.30000001192092896,-2.5 c-0.10000000149011612,-1 -0.10000000149011612,-1.899999976158142 -0.10000000149011612,-2.799999952316284 c0,-0.800000011920929 0,-1.7000000476837158 0.10000000149011612,-2.700000047683716 c0.10000000149011612,-1 0.10000000149011612,-1.899999976158142 0.30000001192092896,-2.5999999046325684 h77.19999694824219 c0.10000000149011612,0.699999988079071 0.20000000298023224,1.5 0.30000001192092896,2.4000000953674316 c0.10000000149011612,0.8999999761581421 0.10000000149011612,1.7999999523162842 0.10000000149011612,2.700000047683716 c0,0.800000011920929 0,1.7000000476837158 -0.10000000149011612,2.799999952316284 c-0.10000000149011612,1.100000023841858 -0.10000000149011612,2 -0.30000001192092896,2.5999999046325684 h-32.70000076293945 v112.0999984741211 c-0.800000011920929,0.10000000149011612 -1.7000000476837158,0.20000000298023224 -2.700000047683716,0.30000001192092896 c-1,0.10000000149011612 -2,0.10000000149011612 -3.0999999046325684,0.10000000149011612 c-1.100000023841858,0 -2.200000047683716,0 -3.299999952316284,-0.10000000149011612 c-1.100000023841858,-0.10000000149011612 -2,-0.10000000149011612 -2.5999999046325684,-0.30000001192092896 v-112 z" id="path93" inkscape:connector-curvature="0" style="fill:#a46708;fill-opacity:1"/><path class="st1" d="m581,655.0999755859375 c-8.5,0 -15.899999618530273,-1.600000023841858 -22.200000762939453,-4.699999809265137 c-6.300000190734863,-3.0999999046325684 -11.600000381469727,-7.5 -15.699999809265137,-13.100000381469727 c-4.099999904632568,-5.599999904632568 -7.199999809265137,-12.300000190734863 -9.300000190734863,-20.100000381469727 c-2.0999999046325684,-7.800000190734863 -3.0999999046325684,-16.299999237060547 -3.0999999046325684,-25.5 c0,-9.199999809265137 1,-17.700000762939453 3.0999999046325684,-25.399999618530273 c2.0999999046325684,-7.699999809265137 5.199999809265137,-14.399999618530273 9.300000190734863,-20 c4.099999904632568,-5.599999904632568 9.399999618530273,-10 15.699999809265137,-13.100000381469727 c6.300000190734863,-3.0999999046325684 13.699999809265137,-4.699999809265137 22.200000762939453,-4.699999809265137 c8.5,0 15.899999618530273,1.600000023841858 22.200000762939453,4.699999809265137 c6.300000190734863,3.0999999046325684 11.600000381469727,7.5 15.699999809265137,13.100000381469727 c4.099999904632568,5.599999904632568 7.199999809265137,12.300000190734863 9.300000190734863,20 c2.0999999046325684,7.699999809265137 3.0999999046325684,16.200000762939453 3.0999999046325684,25.399999618530273 c0,9.199999809265137 -1,17.700000762939453 -3.0999999046325684,25.5 c-2.0999999046325684,7.800000190734863 -5.199999809265137,14.5 -9.300000190734863,20.100000381469727 c-4.099999904632568,5.599999904632568 -9.399999618530273,10 -15.699999809265137,13.100000381469727 c-6.300000190734863,3.0999999046325684 -13.699999809265137,4.699999809265137 -22.200000762939453,4.699999809265137 zm0,-10.800000190734863 c6.599999904632568,0 12.199999809265137,-1.2999999523162842 17,-3.799999952316284 c4.800000190734863,-2.5999999046325684 8.699999809265137,-6.199999809265137 11.899999618530273,-10.800000190734863 c3.200000047683716,-4.699999809265137 5.5,-10.199999809265137 7,-16.700000762939453 c1.5,-6.5 2.299999952316284,-13.600000381469727 2.299999952316284,-21.299999237060547 c0,-7.699999809265137 -0.800000011920929,-14.800000190734863 -2.299999952316284,-21.299999237060547 c-1.5,-6.5 -3.9000000953674316,-12 -7,-16.600000381469727 c-3.200000047683716,-4.599999904632568 -7.099999904632568,-8.199999809265137 -11.899999618530273,-10.699999809265137 c-4.699999809265137,-2.5999999046325684 -10.399999618530273,-3.799999952316284 -17,-3.799999952316284 c-6.599999904632568,0 -12.199999809265137,1.2999999523162842 -17,3.799999952316284 c-4.800000190734863,2.5999999046325684 -8.800000190734863,6.099999904632568 -11.899999618530273,10.699999809265137 c-3.0999999046325684,4.599999904632568 -5.400000095367432,10.100000381469727 -7,16.600000381469727 c-1.5,6.5 -2.299999952316284,13.600000381469727 -2.299999952316284,21.299999237060547 c0,7.699999809265137 0.800000011920929,14.800000190734863 2.299999952316284,21.299999237060547 c1.5,6.5 3.799999952316284,12.100000381469727 7,16.700000762939453 c3.0999999046325684,4.699999809265137 7.099999904632568,8.300000190734863 11.899999618530273,10.800000190734863 c4.699999809265137,2.5999999046325684 10.399999618530273,3.799999952316284 17,3.799999952316284 z" id="path95" inkscape:connector-curvature="0" style="fill:#a46708;fill-opacity:1"/><path class="st1" d="m659.2999877929688,530.4000244140625 c0.800000011920929,-0.10000000149011612 1.7999999523162842,-0.20000000298023224 3.0999999046325684,-0.30000001192092896 c1.2999999523162842,-0.10000000149011612 2.4000000953674316,-0.10000000149011612 3.299999952316284,-0.10000000149011612 c0.8999999761581421,0 2,0 3.200000047683716,0.10000000149011612 c1.2000000476837158,0.10000000149011612 2.299999952316284,0.10000000149011612 3.0999999046325684,0.30000001192092896 l58.29999923706055,102.69999694824219 V530.4000244140625 c0.800000011920929,-0.10000000149011612 1.7000000476837158,-0.20000000298023224 2.5999999046325684,-0.30000001192092896 c1,-0.10000000149011612 2,-0.10000000149011612 3,-0.10000000149011612 c0.8999999761581421,0 1.899999976158142,0 3,0.10000000149011612 c1.100000023841858,0.10000000149011612 2,0.10000000149011612 2.799999952316284,0.30000001192092896 v122.5999984741211 c-0.699999988079071,0.10000000149011612 -1.7000000476837158,0.20000000298023224 -3,0.30000001192092896 c-1.2999999523162842,0.10000000149011612 -2.5,0.10000000149011612 -3.5,0.10000000149011612 c-0.8999999761581421,0 -2,0 -3.200000047683716,-0.10000000149011612 c-1.2000000476837158,-0.10000000149011612 -2.299999952316284,-0.10000000149011612 -3.0999999046325684,-0.30000001192092896 L670.5999755859375,551.2000122070312 v101.80000305175781 c-0.800000011920929,0.10000000149011612 -1.7000000476837158,0.20000000298023224 -2.5999999046325684,0.30000001192092896 c-1,0.10000000149011612 -2,0.10000000149011612 -3,0.10000000149011612 c-1.100000023841858,0 -2.200000047683716,0 -3.200000047683716,-0.10000000149011612 c-1,-0.10000000149011612 -1.899999976158142,-0.10000000149011612 -2.5,-0.30000001192092896 z" id="path97" inkscape:connector-curvature="0" style="fill:#a46708;fill-opacity:1"/><path class="st1" d="m771.4000244140625,639.4000244140625 c1.600000023841858,0.5 3.200000047683716,1 4.900000095367432,1.5 c1.7000000476837158,0.6000000238418579 3.5999999046325684,1.100000023841858 5.699999809265137,1.5 c2.0999999046325684,0.5 4.400000095367432,0.8999999761581421 7,1.2000000476837158 c2.5999999046325684,0.30000001192092896 5.599999904632568,0.5 9,0.5 c5.400000095367432,0 10.100000381469727,-0.699999988079071 14,-2 c3.9000000953674316,-1.2999999523162842 7.099999904632568,-3.0999999046325684 9.699999809265137,-5.300000190734863 c2.5,-2.200000047683716 4.400000095367432,-4.800000190734863 5.699999809265137,-7.800000190734863 c1.2000000476837158,-3 1.899999976158142,-6.300000190734863 1.899999976158142,-9.800000190734863 c0,-3.4000000953674316 -0.4000000059604645,-6.300000190734863 -1.2999999523162842,-8.800000190734863 c-0.800000011920929,-2.4000000953674316 -2.299999952316284,-4.699999809265137 -4.400000095367432,-6.699999809265137 c-2.0999999046325684,-2 -5,-4 -8.600000381469727,-5.900000095367432 c-3.700000047683716,-1.899999976158142 -8.300000190734863,-3.9000000953674316 -13.800000190734863,-6.099999904632568 c-4,-1.5 -7.699999809265137,-3.0999999046325684 -11.300000190734863,-4.800000190734863 c-3.5999999046325684,-1.7000000476837158 -6.699999809265137,-3.799999952316284 -9.399999618530273,-6.199999809265137 c-2.700000047683716,-2.4000000953674316 -4.900000095367432,-5.400000095367432 -6.400000095367432,-8.800000190734863 c-1.600000023841858,-3.4000000953674316 -2.4000000953674316,-7.699999809265137 -2.4000000953674316,-12.800000190734863 c0,-9.199999809265137 3.299999952316284,-16.700000762939453 9.899999618530273,-22.299999237060547 c6.599999904632568,-5.699999809265137 16.299999237060547,-8.5 28.899999618530273,-8.5 c2.5,0 5,0.10000000149011612 7.5,0.30000001192092896 c2.5,0.20000000298023224 4.900000095367432,0.5 7.099999904632568,0.8999999761581421 c2.200000047683716,0.30000001192092896 4.199999809265137,0.699999988079071 6.099999904632568,1.2000000476837158 c1.899999976158142,0.5 3.4000000953674316,0.8999999761581421 4.5,1.2000000476837158 c-0.20000000298023224,1.7000000476837158 -0.5,3.4000000953674316 -0.8999999761581421,5.199999809265137 c-0.4000000059604645,1.7999999523162842 -0.8999999761581421,3.4000000953674316 -1.399999976158142,5 c-2.700000047683716,-0.8999999761581421 -6.199999809265137,-1.7000000476837158 -10.399999618530273,-2.5 c-4.199999809265137,-0.699999988079071 -8.5,-1.100000023841858 -12.600000381469727,-1.100000023841858 c-9.399999618530273,0 -16.100000381469727,1.899999976158142 -20.200000762939453,5.800000190734863 c-4.099999904632568,3.9000000953674316 -6.099999904632568,8.800000190734863 -6.099999904632568,14.699999809265137 c0,3.0999999046325684 0.6000000238418579,5.699999809265137 1.899999976158142,8 c1.2000000476837158,2.299999952316284 3,4.300000190734863 5.199999809265137,6 c2.200000047683716,1.7000000476837158 4.800000190734863,3.299999952316284 7.900000095367432,4.699999809265137 c3.0999999046325684,1.399999976158142 6.300000190734863,2.799999952316284 9.800000190734863,4.199999809265137 c4.699999809265137,1.899999976158142 9.199999809265137,3.9000000953674316 13.300000190734863,6 c4.099999904632568,2 7.699999809265137,4.400000095367432 10.600000381469727,7.199999809265137 c2.9000000953674316,2.700000047683716 5.300000190734863,5.900000095367432 7,9.600000381469727 c1.7000000476837158,3.700000047683716 2.5,8.199999809265137 2.5,13.399999618530273 c0,5.900000095367432 -1,11.199999809265137 -3.0999999046325684,15.800000190734863 c-2.0999999046325684,4.599999904632568 -5.099999904632568,8.5 -8.899999618530273,11.600000381469727 c-3.799999952316284,3.0999999046325684 -8.5,5.5 -14.100000381469727,7.199999809265137 c-5.5,1.600000023841858 -11.800000190734863,2.5 -18.700000762939453,2.5 c-6.699999809265137,0 -12.199999809265137,-0.5 -16.600000381469727,-1.399999976158142 c-4.400000095367432,-1 -8.5,-2.0999999046325684 -12.399999618530273,-3.299999952316284 c0.20000000298023224,-1.7000000476837158 0.6000000238418579,-3.5999999046325684 1.2000000476837158,-5.5 c0.4000000059604645,-2.200000047683716 1,-4 1.7000000476837158,-5.599999904632568 z" id="path99" inkscape:connector-curvature="0" style="fill:#a46708;fill-opacity:1"/></g></g></g></svg>