<svg xmlns="http://www.w3.org/2000/svg" viewBox="0 0 900 300"><defs><style>.cls-1{fill:#5bb45a;}</style></defs><g id="HQ"><g id="Layer_59" data-name="Layer 59"><polygon class="cls-1" points="347.71 141.24 296.26 141.24 296.26 99.19 278.16 99.19 278.16 199.67 296.26 199.67 296.26 156.06 347.71 156.06 347.71 199.67 365.67 199.67 365.67 99.19 347.71 99.19 347.71 141.24"/></g><g id="Layer_58" data-name="Layer 58"><path class="cls-1" d="M418.83,200.81a47,47,0,0,0,14.75-2.42A37.51,37.51,0,0,0,445.76,192l-5.13-12.26a33.53,33.53,0,0,1-21.09,7.42q-9.27,0-14.25-4.71T399.45,168h47.46v-5q0-16.24-8.34-25.51t-22.73-9.27a34.14,34.14,0,0,0-17.61,4.57,31.05,31.05,0,0,0-12,12.82,40.68,40.68,0,0,0-4.27,19q0,16.81,9.9,26.51T418.83,200.81Zm-14-55.44a15.12,15.12,0,0,1,11.47-4.56q7.13,0,11.12,4.49t4.28,13.18H399.45Q400.44,149.93,404.79,145.37Z"/></g><g id="Layer_57" data-name="Layer 57"><polygon class="cls-1" points="471.28 199.67 489.66 176.44 508.19 199.67 529.28 199.67 499.92 163.75 527.57 129.98 506.33 129.98 489.66 151.21 472.99 129.98 451.75 129.98 479.4 163.75 450.18 199.67 471.28 199.67"/></g><g id="Layer_56" data-name="Layer 56"><path class="cls-1" d="M566.48,128.26a61.18,61.18,0,0,0-29.79,8.56l5,12.25a58.65,58.65,0,0,1,11.9-5.34,38.45,38.45,0,0,1,11.62-1.93q7.13,0,10.19,3.14t3.06,10.26v3.28h-3.56q-15.54,0-24.37,2t-12.76,6.41q-3.91,4.41-3.92,12.11a19.78,19.78,0,0,0,3.28,11.12,22.57,22.57,0,0,0,9,7.84,28,28,0,0,0,12.68,2.85,22.91,22.91,0,0,0,12.05-3.14,18.57,18.57,0,0,0,7.62-8.69v10.69h17V157.34q0-14.82-7.12-22T566.48,128.26Zm12,42.62q0,7.56-4.49,12.33A15.21,15.21,0,0,1,562.35,188a11.21,11.21,0,0,1-8-2.92,9.74,9.74,0,0,1-3.14-7.48,7.61,7.61,0,0,1,2.28-5.84q2.28-2.15,7.55-3a98.58,98.58,0,0,1,14.83-.85h2.56Z"/></g><g id="Layer_55" data-name="Layer 55"><path class="cls-1" d="M636.17,173.44V143.37h18.39V130H636.17V109.17H618.36V130H605v13.39h13.4v30.36q0,13.4,7,20.17T647,200.67c2.38,0,5-.15,7.84-.43L655.7,187a53.91,53.91,0,0,1-6.56.42Q636.17,187.41,636.17,173.44Z"/></g><g id="Layer_54" data-name="Layer 54"><path class="cls-1" d="M696.17,128.26a34.11,34.11,0,0,0-17.6,4.57,31.05,31.05,0,0,0-12,12.82,40.68,40.68,0,0,0-4.28,19q0,16.81,9.91,26.51t27,9.69a46.92,46.92,0,0,0,14.74-2.42A37.47,37.47,0,0,0,726.1,192L721,179.71a33.57,33.57,0,0,1-21.09,7.42q-9.27,0-14.25-4.71T679.78,168h47.46v-5q0-16.24-8.33-25.51T696.17,128.26Zm-16.39,30.22q1-8.55,5.35-13.11a15.1,15.1,0,0,1,11.47-4.56q7.13,0,11.12,4.49T712,158.48Z"/></g><g id="Layer_53" data-name="Layer 53"><path class="cls-1" d="M775.84,142.23a27.6,27.6,0,0,1,9.76,1.85,34.21,34.21,0,0,1,9.34,5.42L800.07,137a30.39,30.39,0,0,0-11.33-6.34,45.46,45.46,0,0,0-14.47-2.36,38.91,38.91,0,0,0-19.1,4.57,31.47,31.47,0,0,0-12.75,12.89,39.85,39.85,0,0,0-4.49,19.17,40,40,0,0,0,4.28,19,29.8,29.8,0,0,0,12.32,12.54q8.06,4.43,19,4.42a47.2,47.2,0,0,0,14.82-2.35A32.13,32.13,0,0,0,800.07,192l-5.13-12.4A34,34,0,0,1,785.6,185a27.38,27.38,0,0,1-9.76,1.85q-9.27,0-14.39-5.77t-5.13-16.46q0-10.83,5.13-16.61T775.84,142.23Z"/></g><g id="Layer_52" data-name="Layer 52"><path class="cls-1" d="M851.8,128.26a29.33,29.33,0,0,0-13.18,2.93,23.37,23.37,0,0,0-9.48,8.48V99.19H811.33V199.67h17.81V160.19q0-8.13,4.63-13t12.33-4.84q6.55,0,9.62,3.7t3.07,11.83v41.76H876.6V156.91q0-14.39-6.13-21.52T851.8,128.26Z"/></g><g id="Layer_51" data-name="Layer 51"><rect class="cls-1" x="121.18" y="143.03" width="13.93" height="13.93" transform="translate(-68.53 134.55) rotate(-45)"/></g><g id="Layer_50" data-name="Layer 50"><path class="cls-1" d="M23.4,89.52v121L128.15,271,232.9,210.48v-121L128.15,29.05Zm150.81-5.2a6.9,6.9,0,0,1,0,9.77l-36.3,36.29,9.86,9.85,36.29-36.29a6.91,6.91,0,0,1,9.77,9.77L157.53,150l36.3,36.29a6.91,6.91,0,0,1-9.77,9.77l-36.29-36.29-9.86,9.85,36.3,36.29a6.91,6.91,0,0,1-9.77,9.77l-36.29-36.29-36.3,36.29a6.9,6.9,0,1,1-9.76-9.77l36.29-36.29-9.85-9.85-36.3,36.29a6.9,6.9,0,1,1-9.76-9.77L98.76,150,62.47,113.71a6.9,6.9,0,1,1,9.76-9.77l36.3,36.29,9.85-9.85L82.09,94.09a6.9,6.9,0,0,1,9.76-9.77l36.3,36.29,36.29-36.29A6.9,6.9,0,0,1,174.21,84.32Z"/></g></g></svg>